<?xml version="1.0" encoding="iso-8859-1"?>
<!-- Generator: Adobe Illustrator 19.0.0, SVG Export Plug-In . SVG Version: 6.00 Build 0)  -->
<svg version="1.1" id="Layer_1" xmlns="http://www.w3.org/2000/svg" xmlns:xlink="http://www.w3.org/1999/xlink" x="0px" y="0px"
	 viewBox="0 0 512.004 512.004" style="enable-background:new 0 0 512.004 512.004;" xml:space="preserve">
<g>
	<g>
		<path style="fill:#6CA1E9;" d="M427.504,47.997L317.794,0.002l44.138,70.621l-44.138,35.31l-8.828,52.966l-35.31,88.276v158.897
			c0,58.368,47.21,105.71,105.525,105.931c9.896,0.035,18.061-7.759,18.061-17.655v-291.31l35.31,220.69h79.448L464.023,95.852
			C460.925,74.665,447.119,56.578,427.504,47.997"/>
		<path style="fill:#6CA1E9;" d="M203.037,158.897l-8.828-52.966l-44.138-35.31L194.209,0L84.5,47.996
			c-19.615,8.58-33.412,26.668-36.52,47.854L0.002,423.724H79.45l35.31-220.69v291.31c0,9.896,8.166,17.691,18.061,17.655
			c58.315-0.221,105.525-47.563,105.525-105.931V247.172L203.037,158.897z"/>
	</g>
	<g>
		<path style="fill:#4F85BF;" d="M489.18,459.034h-25.062c-8.174,0-15.298-5.561-17.284-13.497l-5.455-21.813h61.793l3.293,13.171
			C509.281,448.141,500.771,459.034,489.18,459.034"/>
		<path style="fill:#4F85BF;" d="M24.032,459.034h23.111c8.616,0,16.119-5.862,18.202-14.212l5.279-21.098H8.831l-3.001,11.997
			C2.872,447.567,11.823,459.034,24.032,459.034"/>
	</g>
	<g>
		<polygon style="fill:#3B6A96;" points="317.795,0 361.933,70.621 317.795,105.931 308.968,158.897 273.657,247.172 
			273.657,70.621 		"/>
		<polygon style="fill:#3B6A96;" points="194.209,0 150.071,70.621 194.209,105.931 203.037,158.897 238.347,247.172 
			238.347,70.621 		"/>
	</g>
	<g>
		<polygon style="fill:#4F85BF;" points="317.795,0 194.209,0 216.278,35.31 295.726,35.31 		"/>
		<path style="fill:#4F85BF;" d="M185.382,414.897h-17.655c-4.873,0-8.828-3.955-8.828-8.828v-26.483h35.31v26.483
			C194.209,410.942,190.254,414.897,185.382,414.897"/>
		<path style="fill:#4F85BF;" d="M344.278,414.897h-17.655c-4.873,0-8.828-3.955-8.828-8.828v-26.483h35.31v26.483
			C353.106,410.942,349.151,414.897,344.278,414.897"/>
	</g>
	<g>
		<path style="fill:#F0C419;" d="M300.14,282.483h-26.483c-4.882,0-8.828-3.946-8.828-8.828s3.946-8.828,8.828-8.828h26.483
			c4.882,0,8.828,3.946,8.828,8.828S305.022,282.483,300.14,282.483"/>
		<path style="fill:#F0C419;" d="M300.14,291.31c-4.882,0-8.828-3.946-8.828-8.828v-17.655c0-4.882,3.946-8.828,8.828-8.828
			c4.882,0,8.828,3.946,8.828,8.828v17.655C308.968,287.364,305.022,291.31,300.14,291.31"/>
		<path style="fill:#F0C419;" d="M238.347,282.483h-26.483c-4.882,0-8.828-3.946-8.828-8.828s3.946-8.828,8.828-8.828h26.483
			c4.882,0,8.828,3.946,8.828,8.828S243.229,282.483,238.347,282.483"/>
		<path style="fill:#F0C419;" d="M211.864,291.31c-4.882,0-8.828-3.946-8.828-8.828v-17.655c0-4.882,3.946-8.828,8.828-8.828
			s8.828,3.946,8.828,8.828v17.655C220.692,287.364,216.746,291.31,211.864,291.31"/>
		<path style="fill:#F0C419;" d="M300.14,335.448h-26.483c-4.882,0-8.828-3.946-8.828-8.828c0-4.882,3.946-8.828,8.828-8.828h26.483
			c4.882,0,8.828,3.946,8.828,8.828C308.968,331.502,305.022,335.448,300.14,335.448"/>
		<path style="fill:#F0C419;" d="M300.14,344.276c-4.882,0-8.828-3.946-8.828-8.828v-17.655c0-4.882,3.946-8.828,8.828-8.828
			c4.882,0,8.828,3.946,8.828,8.828v17.655C308.968,340.33,305.022,344.276,300.14,344.276"/>
		<path style="fill:#F0C419;" d="M238.347,335.448h-26.483c-4.882,0-8.828-3.946-8.828-8.828c0-4.882,3.946-8.828,8.828-8.828
			h26.483c4.882,0,8.828,3.946,8.828,8.828C247.175,331.502,243.229,335.448,238.347,335.448"/>
		<path style="fill:#F0C419;" d="M211.864,344.276c-4.882,0-8.828-3.946-8.828-8.828v-17.655c0-4.882,3.946-8.828,8.828-8.828
			s8.828,3.946,8.828,8.828v17.655C220.692,340.33,216.746,344.276,211.864,344.276"/>
	</g>
	<path style="fill:#4F85BF;" d="M348.088,507.237c-13.268-4.131-25.415-10.787-35.884-19.43
		c-5.226-4.317-10.037-9.128-14.354-14.354c-8.642-10.47-15.307-22.616-19.43-35.884c-3.098-9.949-4.767-20.533-4.767-31.497
		V247.176V70.624l22.069-35.31h-79.448l22.069,35.31v176.552v158.897c0,10.964-1.668,21.548-4.758,31.497
		c-4.131,13.268-10.796,25.415-19.43,35.884c-4.317,5.226-9.128,10.037-14.362,14.354c-10.461,8.642-22.607,15.298-35.875,19.43
		c-9.949,3.098-20.533,4.767-31.506,4.767h247.172C368.621,512.004,358.037,510.335,348.088,507.237"/>
	<g>
		<path style="fill:#3B6A96;" d="M203.037,388.414h-52.966c-4.882,0-8.828-3.946-8.828-8.828c0-4.882,3.946-8.828,8.828-8.828
			h52.966c4.882,0,8.828,3.946,8.828,8.828C211.864,384.468,207.918,388.414,203.037,388.414"/>
		<path style="fill:#3B6A96;" d="M361.933,388.414h-52.966c-4.882,0-8.828-3.946-8.828-8.828c0-4.882,3.946-8.828,8.828-8.828
			h52.966c4.882,0,8.828,3.946,8.828,8.828C370.761,384.468,366.815,388.414,361.933,388.414"/>
	</g>
</g>
<g>
</g>
<g>
</g>
<g>
</g>
<g>
</g>
<g>
</g>
<g>
</g>
<g>
</g>
<g>
</g>
<g>
</g>
<g>
</g>
<g>
</g>
<g>
</g>
<g>
</g>
<g>
</g>
<g>
</g>
</svg>
