<?xml version="1.0" encoding="iso-8859-1"?>
<!-- Generator: Adobe Illustrator 19.0.0, SVG Export Plug-In . SVG Version: 6.00 Build 0)  -->
<svg version="1.1" id="Layer_1" xmlns="http://www.w3.org/2000/svg" xmlns:xlink="http://www.w3.org/1999/xlink" x="0px" y="0px"
	 viewBox="0 0 512.352 512.352" style="enable-background:new 0 0 512.352 512.352;" xml:space="preserve">
<g transform="translate(1 1)">
	<g>
		<path style="fill:#FFE100;" d="M399.816,45.432l0.853,0.853c-24.747,14.507-25.6,42.667-25.6,42.667
			c14.507,128.853,9.387,268.8,4.267,319.147c9.387,17.92,17.92,60.587,17.92,60.587h51.2
			C463.816,304.846,424.562,47.139,399.816,45.432"/>
		<path style="fill:#FFE100;" d="M111.389,45.432l-0.853,0.853c24.747,14.507,25.6,42.667,25.6,42.667
			c-14.507,128.853-9.387,268.8-4.267,319.147c-9.387,17.92-17.92,60.587-17.92,60.587h-51.2
			C47.389,304.846,86.642,47.139,111.389,45.432"/>
		<path style="fill:#FFE100;" d="M400.669,46.286l-59.733-38.4c-5.12,17.067-17.92,25.6-34.133,25.6h-102.4
			c-15.36,0-29.867-11.947-34.133-25.6l-59.733,38.4c24.747,14.507,25.6,42.667,25.6,42.667c-21.333,186.88,0,354.133,0,354.133
			l8.533,25.6h221.867l8.533-25.6c0,0,21.333-167.253,0-354.133C375.069,88.952,375.922,60.792,400.669,46.286"/>
		<path style="fill:#FFE100;" d="M306.802,229.752c0,70.827,7.68,191.147,20.48,238.933h39.253l8.533-25.6
			c0,0,21.333-167.253,0-354.133c0,0,0.853-28.16,25.6-42.667l-59.733-38.4C320.456,56.526,306.802,136.739,306.802,229.752"/>
		<path style="fill:#FFE100;" d="M204.402,229.752c0-93.013-13.653-173.227-34.133-221.867l-59.733,38.4
			c24.747,14.507,25.6,42.667,25.6,42.667c-21.333,186.88,0,354.133,0,354.133l8.533,25.6h39.253
			C196.722,420.899,204.402,300.579,204.402,229.752"/>
	</g>
	<g>
		<path style="fill:#FDCC00;" d="M349.469,502.819H161.736c-5.12,0-8.533-3.413-8.533-8.533v-25.6h204.8v25.6
			C358.002,499.406,354.589,502.819,349.469,502.819"/>
		<path style="fill:#FDCC00;" d="M434.802,502.819h-25.6c-5.12,0-8.533-3.413-8.533-8.533v-25.6h42.667v25.6
			C443.336,499.406,439.922,502.819,434.802,502.819"/>
		<path style="fill:#FDCC00;" d="M102.002,502.819h-25.6c-5.12,0-8.533-3.413-8.533-8.533v-25.6h42.667v25.6
			C110.536,499.406,107.122,502.819,102.002,502.819"/>
	</g>
	<g>
		<path style="fill:#FFA800;" d="M399.816,47.139h0.853c-4.267,2.56-6.827,5.12-10.24,7.68
			c24.747,45.227,54.613,267.947,40.96,414.72h17.067C463.816,306.552,424.562,47.992,399.816,47.139"/>
		<path style="fill:#FFA800;" d="M426.269,469.539v25.6c0,5.12-3.413,8.533-8.533,8.533h17.067c5.12,0,8.533-3.413,8.533-8.533
			v-25.6H426.269z"/>
	</g>
	<g>
		<path style="fill:#FFFFFF;" d="M111.389,42.019l-0.853,0.853c4.267,1.707,6.827,4.267,10.24,7.68
			c-24.747,45.227-54.614,267.947-40.96,414.72H62.749C47.389,301.433,86.642,43.726,111.389,42.019"/>
		<path style="fill:#FFFFFF;" d="M84.936,465.272v25.6c0,5.12,3.413,8.533,8.533,8.533H76.402c-5.12,0-8.533-3.413-8.533-8.533
			v-25.6H84.936z"/>
	</g>
	<path d="M448.456,477.219h-51.2c-4.267,0-7.68-2.56-8.533-6.827c0,0-8.533-41.813-17.067-58.88
		c-0.853-1.707-0.853-3.413-0.853-5.12c5.973-58.88,9.387-196.267-4.267-317.44v-0.853c0-1.707,0.853-30.72,25.6-46.933
		c1.707-2.56,4.267-4.267,7.68-4.267c4.267,0,7.68,2.56,10.24,5.973c29.013,34.133,59.733,278.187,46.08,426.667
		C456.136,473.806,452.722,477.219,448.456,477.219z M404.082,460.152h36.693c12.8-158.72-21.333-372.053-40.96-403.627
		c-14.507,11.947-16.213,29.013-16.213,32.427c13.653,120.32,10.24,256.853,4.267,317.44
		C394.696,420.899,401.522,447.352,404.082,460.152z"/>
	<path d="M113.949,477.219h-51.2c-4.267,0-7.68-3.413-8.533-7.68c-13.654-148.48,17.066-392.533,46.08-426.667
		c3.413-3.413,6.827-5.12,10.24-5.973c3.413,0,5.973,1.707,7.68,4.267c24.747,17.067,25.6,46.08,25.6,46.933v0.853
		c-12.8,122.027-9.387,259.413-3.413,318.293c0,1.707,0,3.413-0.853,5.12c-6.827,13.653-14.507,46.933-17.067,58.88
		C121.629,474.659,118.216,477.219,113.949,477.219z M70.429,460.152h36.693c2.56-12.8,9.387-39.253,16.213-53.76
		c-5.973-60.587-9.387-197.973,4.267-317.44c0-3.413-1.707-20.48-16.213-31.573C92.616,88.099,57.629,301.433,70.429,460.152z"/>
	<path d="M349.469,511.352H161.736c-9.387,0-17.067-7.68-17.067-17.067v-25.6c0-5.12,3.413-8.533,8.533-8.533h204.8
		c5.12,0,8.533,3.413,8.533,8.533v25.6C366.536,503.672,358.856,511.352,349.469,511.352z M349.469,494.286v8.533V494.286
		L349.469,494.286z M161.736,477.219v17.067h187.733v-17.067H161.736z"/>
	<path d="M434.802,511.352h-25.6c-9.387,0-17.067-7.68-17.067-17.067v-25.6c0-5.12,3.413-8.533,8.533-8.533h42.667
		c5.12,0,8.533,3.413,8.533,8.533v25.6C451.869,503.672,444.189,511.352,434.802,511.352z M434.802,494.286v8.533V494.286
		L434.802,494.286z M409.202,477.219v17.067h25.6v-17.067H409.202z"/>
	<path d="M102.002,511.352h-25.6c-9.387,0-17.067-7.68-17.067-17.067v-25.6c0-5.12,3.413-8.533,8.533-8.533h42.667
		c5.12,0,8.533,3.413,8.533,8.533v25.6C119.069,503.672,111.389,511.352,102.002,511.352z M102.002,494.286v8.533V494.286
		L102.002,494.286z M76.402,477.219v17.067h25.6v-17.067H76.402z"/>
	<path d="M366.536,477.219H144.669c-3.413,0-6.827-2.56-7.68-5.973l-8.533-25.6c0-0.853,0-0.853,0-1.707
		c0-1.707-21.333-169.813,0-355.84c0-3.413-2.56-23.893-21.333-34.987c-3.413-0.853-5.12-3.413-5.12-6.827
		c0-2.56,1.707-5.973,4.267-7.68l59.733-38.4c1.707-0.853,4.267-0.853,6.827,0s4.267,2.56,5.12,5.12
		c4.267,11.093,15.36,19.627,26.453,19.627h102.4c12.8,0,22.187-6.827,25.6-19.627c0.853-2.56,2.56-4.267,5.12-5.12
		c3.413-0.853,5.973-0.853,7.68,0.853l59.733,38.4c2.56,0.853,4.267,4.267,4.267,6.827s-1.707,5.973-4.267,6.827
		c-18.773,11.093-21.333,31.573-21.333,35.84c21.333,186.027,0,354.133,0,355.84c0,0.853,0,0.853,0,1.707l-8.533,25.6
		C373.362,474.659,369.949,477.219,366.536,477.219z M150.642,460.152h209.92l5.973-18.773c1.707-12.8,20.48-174.08,0-351.573
		v-0.853c0-0.853,0.853-24.747,18.773-41.813l-40.96-26.453c-7.68,13.653-20.48,21.333-37.547,21.333h-102.4
		c-14.507,0-29.867-8.533-37.547-21.333l-40.96,26.453c17.92,17.067,18.773,40.96,18.773,41.813v0.853
		c-20.48,177.493-1.707,338.773,0,351.573L150.642,460.152z"/>
	<path d="M366.536,477.219h-39.253c-4.267,0-6.827-2.56-8.533-5.973c-12.8-51.2-20.48-174.933-20.48-241.493
		c0-89.6,12.8-174.08,34.987-225.28c0.853-2.56,2.56-4.267,5.12-5.12s5.12,0,6.827,0.853l59.733,38.4
		c2.56,1.707,4.267,5.12,4.267,7.68s-1.707,5.973-4.267,6.827c-18.773,11.093-21.333,31.573-21.333,35.84
		c21.333,186.027,0,354.133,0,355.84c0,0.853,0,0.853,0,1.707l-8.533,25.6C373.362,474.659,369.949,477.219,366.536,477.219z
		 M334.109,460.152h26.453l5.973-18.773c1.707-12.8,20.48-174.08,0-351.573v-0.853c0-0.853,0.853-24.747,18.773-41.813
		l-40.96-26.453c-17.92,49.493-29.013,127.147-29.013,209.067C315.336,302.286,323.016,411.512,334.109,460.152z"/>
	<path d="M183.922,477.219h-39.253c-3.413,0-6.827-2.56-7.68-5.973l-8.533-25.6c0-0.853,0-0.853,0-1.707
		c0-1.707-21.333-169.813,0-355.84c0-3.413-2.56-23.893-21.333-34.987c-3.413-0.853-5.12-3.413-5.12-6.827
		c0-2.56,1.707-5.973,4.267-7.68l59.733-38.4c1.707-0.853,4.267-0.853,6.827-0.853c2.56,0.853,4.267,2.56,5.12,5.12
		c22.187,51.2,34.987,135.68,34.987,225.28c0,66.56-7.68,190.293-21.333,241.493C190.749,474.659,187.336,477.219,183.922,477.219z
		 M150.642,460.152h26.453c11.093-48.64,18.773-157.867,18.773-230.4c0-81.92-11.093-159.573-29.867-209.067l-40.105,26.454
		c17.92,17.067,18.773,40.96,18.773,41.813v0.853c-20.48,177.493-1.707,338.773,0,351.573L150.642,460.152z"/>
</g>
<g>
</g>
<g>
</g>
<g>
</g>
<g>
</g>
<g>
</g>
<g>
</g>
<g>
</g>
<g>
</g>
<g>
</g>
<g>
</g>
<g>
</g>
<g>
</g>
<g>
</g>
<g>
</g>
<g>
</g>
</svg>
