<?xml version="1.0" encoding="iso-8859-1"?>
<!-- Generator: Adobe Illustrator 19.0.0, SVG Export Plug-In . SVG Version: 6.00 Build 0)  -->
<svg version="1.1" id="Layer_1" xmlns="http://www.w3.org/2000/svg" xmlns:xlink="http://www.w3.org/1999/xlink" x="0px" y="0px"
	 viewBox="0 0 512 512" style="enable-background:new 0 0 512 512;" xml:space="preserve">
<g transform="translate(0 -1)">
	<path style="fill:#AA7948;" d="M406.069,71.621c-7.998-7.548-36.873-18.909-61.793-26.483l-13.374,72.448
		c-5.791,33.333-22.06,64.335-47.642,86.466c-9.092,7.865-18.538,14.151-27.26,17.638v158.897
		c0,65.783,53.283,114.714,123.586,114.759c0-74.664-35.31-211.862-35.31-211.862c0-38.338,8.21-78.468,17.841-105.746
		c0,0,18.573,43.396,24.638,61.608c6.073,18.202,45.798,238.345,45.798,238.345l61.793-8.828
		C473.379,366.798,425.931,90.379,406.069,71.621"/>
	<path style="fill:#CE995B;" d="M105.931,71.621c7.998-7.548,36.873-18.909,61.793-26.483l13.374,72.448
		c5.791,33.333,22.06,64.335,47.643,86.466c9.092,7.865,18.538,14.151,27.26,17.638v158.897
		c0,65.783-53.283,114.759-123.586,114.759c0-74.664,35.31-211.862,35.31-211.862c0-38.338-8.21-78.468-17.841-105.746
		c0,0-18.573,43.396-24.638,61.608c-6.073,18.202-45.798,238.345-45.798,238.345l-61.793-8.828
		C38.621,366.798,86.069,90.379,105.931,71.621"/>
	<g>
		<path style="fill:#AA7948;" d="M229.517,248.172c0-4.873-3.955-8.828-8.828-8.828s-8.828,3.955-8.828,8.828
			c0,4.873,3.955,8.828,8.828,8.828S229.517,253.045,229.517,248.172"/>
		<path style="fill:#AA7948;" d="M229.517,301.138c0-4.873-3.955-8.828-8.828-8.828s-8.828,3.955-8.828,8.828
			c0,4.873,3.955,8.828,8.828,8.828S229.517,306.011,229.517,301.138"/>
	</g>
	<g>
		<path style="fill:#CE995B;" d="M300.138,248.172c0-4.873-3.955-8.828-8.828-8.828s-8.828,3.955-8.828,8.828
			c0,4.873,3.955,8.828,8.828,8.828S300.138,253.045,300.138,248.172"/>
		<path style="fill:#CE995B;" d="M300.138,301.138c0-4.873-3.955-8.828-8.828-8.828s-8.828,3.955-8.828,8.828
			c0,4.873,3.955,8.828,8.828,8.828S300.138,306.011,300.138,301.138"/>
	</g>
	<g>
		<path style="fill:#AA7948;" d="M229.517,354.103c0-4.873-3.955-8.828-8.828-8.828s-8.828,3.955-8.828,8.828
			s3.955,8.828,8.828,8.828S229.517,358.976,229.517,354.103"/>
		<path style="fill:#AA7948;" d="M229.517,407.069c0-4.873-3.955-8.828-8.828-8.828s-8.828,3.955-8.828,8.828
			s3.955,8.828,8.828,8.828S229.517,411.942,229.517,407.069"/>
	</g>
	<g>
		<path style="fill:#CE995B;" d="M300.138,354.103c0-4.873-3.955-8.828-8.828-8.828s-8.828,3.955-8.828,8.828
			s3.955,8.828,8.828,8.828S300.138,358.976,300.138,354.103"/>
		<path style="fill:#CE995B;" d="M300.138,407.069c0-4.873-3.955-8.828-8.828-8.828s-8.828,3.955-8.828,8.828
			s3.955,8.828,8.828,8.828S300.138,411.942,300.138,407.069"/>
	</g>
	<path style="fill:#895C34;" d="M317.793,9.828C308.966,1,282.483,1,256,1s-52.966,0-61.793,8.828l8.828,44.138H256h52.966
		L317.793,9.828z"/>
	<path style="fill:#AA7948;" d="M228.739,204.052c9.092,7.865,18.538,14.151,27.26,17.638v-44.138
		c-17.655-17.655-52.966-105.931-52.966-123.586l-8.828-44.138l-26.483,35.31l13.383,72.448
		C186.887,150.919,203.156,181.921,228.739,204.052"/>
	<path style="fill:#CE995B;" d="M283.261,204.052c-9.092,7.865-18.538,14.151-27.26,17.638v-44.138
		c17.655-17.655,52.965-105.931,52.965-123.586l8.828-44.138l26.483,35.31l-13.383,72.448
		C325.113,150.919,308.844,181.921,283.261,204.052"/>
	<path style="fill:#6D4729;" d="M256,53.966h-52.966c0,17.655,35.31,105.931,52.966,123.586
		c17.655-17.655,52.966-105.931,52.966-123.586H256z"/>
	<path style="fill:#895C34;" d="M256,380.586c0,65.465-53.786,114.273-123.586,114.759C167.724,512.947,220.716,513,256,513
		c35.31,0,88.276,0.044,123.586-17.611l-0.035-0.053C309.76,494.806,256,446.052,256,380.586"/>
</g>
<g>
</g>
<g>
</g>
<g>
</g>
<g>
</g>
<g>
</g>
<g>
</g>
<g>
</g>
<g>
</g>
<g>
</g>
<g>
</g>
<g>
</g>
<g>
</g>
<g>
</g>
<g>
</g>
<g>
</g>
</svg>
