<?xml version="1.0" encoding="iso-8859-1"?>
<!-- Generator: Adobe Illustrator 19.0.0, SVG Export Plug-In . SVG Version: 6.00 Build 0)  -->
<svg version="1.1" id="Layer_1" xmlns="http://www.w3.org/2000/svg" xmlns:xlink="http://www.w3.org/1999/xlink" x="0px" y="0px"
	 viewBox="0 0 512 512" style="enable-background:new 0 0 512 512;" xml:space="preserve">
<g transform="translate(0 -1)">
	<g>
		<path style="fill:#B7699D;" d="M186.576,96.458c-4.79,0-8.678-3.879-8.678-8.678c0-35.033-17.191-69.424-34.712-69.424
			c-4.79,0-8.678-3.879-8.678-8.678S138.396,1,143.186,1c30.685,0,52.068,45.742,52.068,86.78
			C195.254,92.579,191.367,96.458,186.576,96.458"/>
		<path style="fill:#B7699D;" d="M325.424,96.458c-4.79,0-8.678-3.879-8.678-8.678c0-41.038,21.383-86.78,52.068-86.78
			c4.79,0,8.678,3.879,8.678,8.678s-3.888,8.678-8.678,8.678c-17.521,0-34.712,34.391-34.712,69.424
			C334.102,92.579,330.214,96.458,325.424,96.458"/>
		<path style="fill:#B7699D;" d="M480.744,493.711c0.286,0.286,0.564,0.607,0.85,0.894v0.095c-0.026,0.052-0.234,0.408-0.573,0.929
			c-98.755-0.234-184.008-55.973-225.02-138.83c-41.012,82.857-126.264,138.596-225.02,138.83c-0.382-0.581-0.607-0.989-0.607-0.989
			s17.356,34.712,95.458,8.678c0,0,37.619-12.54,70.222-5.641c15.091,3.193,30.338,6.647,45.768,6.647h14.18h14.18
			c15.429,0,30.668-3.454,45.768-6.647c32.603-6.899,70.222,5.641,70.222,5.641c78.102,26.034,95.458-8.678,95.458-8.678
			C481.325,494.345,481.039,494.015,480.744,493.711"/>
		<path style="fill:#B7699D;" d="M377.492,356.797h3.705c-25.131-44.136-44.414-85.721-55.773-112.814h-43.39H256
			C256,306.343,315.132,356.797,377.492,356.797"/>
		<path style="fill:#B7699D;" d="M134.508,356.797c62.36,0,121.492-50.454,121.492-112.814h-26.034h-43.39
			c-11.359,27.093-30.642,68.677-55.773,112.814H134.508z"/>
	</g>
	<g>
		<path style="fill:#E080BC;" d="M481.591,494.603c-38.825-38.834-73.068-89.834-100.395-137.806l0,0h-3.705
			c-62.351,0-121.492-50.454-121.492-112.814c0,62.36-59.132,112.814-121.492,112.814h-3.706l0.009-0.009
			c-27.336,47.989-61.596,99.016-100.439,137.849c0,0,0.234,0.408,0.607,0.989c98.755-0.234,184.008-55.964,225.02-138.83
			c41.012,82.866,126.264,138.596,225.02,138.83c0.347-0.521,0.547-0.868,0.573-0.929V494.603z"/>
		<path style="fill:#E080BC;" d="M256,174.559l-56.832-81.182c-2.447-3.506-6.465-5.597-10.743-5.597
			c-6.153,0-11.472,4.27-12.809,10.275l-11.177,50.28c-2.265,10.188-0.312,20.853,5.415,29.583l0.469,0.72
			c10.995,12.852,16.176,38.279,16.254,65.345l0,0C224.95,243.983,256,212.933,256,174.559"/>
		<path style="fill:#E080BC;" d="M342.148,177.919c5.719-8.73,7.671-19.404,5.406-29.592l-11.169-50.271
			c-1.336-6.005-6.656-10.275-12.809-10.275c-4.278,0-8.296,2.091-10.752,5.597l-56.823,81.182c0,38.374,31.05,69.424,69.424,69.424
			h0.26c1.033-23.656,6.066-48.085,15.993-65.345L342.148,177.919z"/>
	</g>
	<path style="fill:#9E578A;" d="M256,174.559c0,38.374-31.05,69.424-69.424,69.424h138.847C287.05,243.983,256,212.933,256,174.559"
		/>
</g>
<g>
</g>
<g>
</g>
<g>
</g>
<g>
</g>
<g>
</g>
<g>
</g>
<g>
</g>
<g>
</g>
<g>
</g>
<g>
</g>
<g>
</g>
<g>
</g>
<g>
</g>
<g>
</g>
<g>
</g>
</svg>
