<?xml version="1.0" encoding="iso-8859-1"?>
<!-- Generator: Adobe Illustrator 19.0.0, SVG Export Plug-In . SVG Version: 6.00 Build 0)  -->
<svg version="1.1" id="Layer_1" xmlns="http://www.w3.org/2000/svg" xmlns:xlink="http://www.w3.org/1999/xlink" x="0px" y="0px"
	 viewBox="0 0 504.057 504.057" style="enable-background:new 0 0 504.057 504.057;" xml:space="preserve">
<g transform="translate(0 -1)">
	<path style="fill:#C03A2B;" d="M329.709,236.331c-8.435-20.121-6.89-42.595,2.668-62.204c12.001-24.639,9.477-47.373,9.477-47.373
		C341.853,90.825,278.976,1,278.976,1c0,125.754-26.947,143.719-26.947,143.719S225.081,126.754,225.081,1
		c0,0-62.877,89.825-62.877,125.754c0,0-2.533,22.735,9.467,47.373c9.557,19.609,11.102,42.083,2.668,62.204
		C149.808,294.87,95.653,408.884,18.485,486.053c0,0,17.965,35.93,98.807,8.982c0,0,38.939-12.98,72.686-5.839
		c15.62,3.306,31.403,5.839,47.373,5.839h14.677h14.677c15.971,0,31.744-2.533,47.374-5.839c33.747-7.141,72.686,5.839,72.686,5.839
		c80.842,26.947,98.807-8.982,98.807-8.982C408.395,408.884,354.249,294.87,329.709,236.331"/>
	<path style="fill:#F0C419;" d="M179.094,198.615c1.635,12.054,0.368,24.342-4.123,35.93h154.112
		c-4.5-11.587-5.758-23.875-4.123-35.93H179.094z"/>
	<g>
		<path style="fill:#9B2B23;" d="M418.226,494.721c-25.744-17.165-58.413-66.982-58.413-98.493c0-4.967-4.015-8.982-8.982-8.982
			c-4.967,0-8.982,4.015-8.982,8.982c0,31.924,25.223,75.408,51.029,100.648c10.896,3.333,20.606,5.515,29.193,6.737
			C422.61,500.254,421.244,496.733,418.226,494.721"/>
		<path style="fill:#9B2B23;" d="M324.227,487.681c-0.045-0.314,0.036-0.629-0.045-0.943c-1.015-4.087-2.12-8.012-3.216-11.866
			c-3.261-11.498-6.063-21.423-6.063-33.729c0-4.967-4.015-8.982-8.982-8.982c-4.967,0-8.982,4.015-8.982,8.982
			c0,14.794,3.431,26.911,6.746,38.625c1.006,3.539,2.012,7.15,2.955,10.887c2.479-0.476,4.967-0.934,7.437-1.455
			C317.418,488.49,320.822,488.022,324.227,487.681"/>
		<path style="fill:#9B2B23;" d="M213.36,493.328c1.15-4.446,2.524-8.911,3.934-13.429c3.827-12.198,7.788-24.81,7.788-38.759
			c0-4.967-4.024-8.982-8.982-8.982c-4.967,0-8.982,4.015-8.982,8.982c0,11.201-3.377,21.971-6.961,33.379
			c-1.617,5.138-3.198,10.222-4.455,15.27c-0.045,0.18,0.009,0.35-0.027,0.53C201.548,491.477,207.44,492.537,213.36,493.328"/>
		<path style="fill:#9B2B23;" d="M112.105,496.595c26.337-24.001,59.078-66.488,59.078-100.37c0-4.958-4.015-8.982-8.982-8.982
			s-8.982,4.024-8.982,8.982c0,31.07-40.259,80.402-67.404,98.493c-3.018,2.021-4.383,5.533-3.844,8.902
			C90.808,502.362,100.823,500.09,112.105,496.595"/>
	</g>
</g>
<g>
</g>
<g>
</g>
<g>
</g>
<g>
</g>
<g>
</g>
<g>
</g>
<g>
</g>
<g>
</g>
<g>
</g>
<g>
</g>
<g>
</g>
<g>
</g>
<g>
</g>
<g>
</g>
<g>
</g>
</svg>
