<?xml version="1.0" encoding="iso-8859-1"?>
<!-- Generator: Adobe Illustrator 19.0.0, SVG Export Plug-In . SVG Version: 6.00 Build 0)  -->
<svg version="1.1" id="Layer_1" xmlns="http://www.w3.org/2000/svg" xmlns:xlink="http://www.w3.org/1999/xlink" x="0px" y="0px"
	 viewBox="0 0 512 512" style="enable-background:new 0 0 512 512;" xml:space="preserve">
<g transform="translate(0 -1)">
	<path style="fill:#FDD7AD;" d="M256,188.733c-2.995,0-5.76-1.57-7.305-4.122c-17.886-29.636-33.741-49.075-43.358-59.699
		l-28.006,35.021c-1.51,1.894-3.772,3.046-6.187,3.183c-2.423,0.154-4.804-0.759-6.511-2.483
		c-17.263-17.263-45.167-70.519-45.167-82.833c0-37.598,51.763-42.667,102.4-42.667c4.71,0,8.533-3.823,8.533-8.533V9.533
		c0-4.719,3.814-8.533,8.533-8.533h34.133c4.719,0,8.533,3.814,8.533,8.533V26.6c0,4.71,3.823,8.533,8.533,8.533
		c50.637,0,102.4,5.069,102.4,42.667c0,12.314-27.904,65.57-45.167,82.833c-1.707,1.724-4.062,2.654-6.511,2.483
		c-2.415-0.137-4.676-1.289-6.187-3.183l-28.006-35.021c-9.617,10.624-25.472,30.063-43.358,59.699
		C261.76,187.163,258.995,188.733,256,188.733"/>
	<g>
		<path style="fill:#285680;" d="M204.791,120.467c-3.755,0-7.202-2.5-8.226-6.298l-18.133-66.97
			c-1.229-4.548,1.451-9.242,5.999-10.47c4.557-1.254,9.242,1.451,10.47,6.007l18.133,66.961c1.229,4.548-1.451,9.242-5.999,10.47
			C206.285,120.373,205.534,120.467,204.791,120.467"/>
		<path style="fill:#285680;" d="M307.209,120.467c-0.683,0-1.374-0.085-2.065-0.247c-4.574-1.143-7.356-5.769-6.229-10.342
			l16.486-66.27c1.143-4.574,5.769-7.339,10.342-6.221c4.574,1.135,7.356,5.76,6.221,10.342l-16.478,66.261
			C314.513,117.873,311.031,120.467,307.209,120.467"/>
	</g>
	<path style="fill:#4482C3;" d="M349.867,487.4h0.085H349.867z M256,513c-43.554,0-94.421-16.794-96.563-17.51
		c-2.773-0.913-4.881-3.2-5.589-6.033c-19.174-77.107-33.57-158.123,17.954-226.628c10.419-13.85,15.932-29.474,15.932-45.175
		v-3.319c0-0.947,0.043-2.048,0.102-3.302c0.418-9.463,1.186-27.093-23.057-50.261c-3.2-3.055-3.533-8.047-0.777-11.503
		l34.133-42.667c1.51-1.894,3.772-3.046,6.187-3.183c2.432-0.06,4.804,0.759,6.511,2.483c6.997,6.997,24.397,25.762,45.167,58.138
		c20.77-32.375,38.17-51.14,45.167-58.138c1.715-1.724,4.113-2.526,6.511-2.483c2.415,0.137,4.676,1.289,6.187,3.183l34.133,42.667
		c2.756,3.456,2.423,8.448-0.777,11.503c-24.243,23.168-23.475,40.798-23.057,50.261c0.06,1.254,0.102,2.355,0.102,3.302v3.319
		c0,15.701,5.513,31.326,15.932,45.175c51.524,68.506,37.129,149.521,17.954,226.628c-0.708,2.833-2.816,5.12-5.589,6.033
		C350.421,496.206,299.554,513,256,513L256,513z"/>
	<g>
		<path style="fill:#285680;" d="M256,222.867c-4.719,0-8.533-3.814-8.533-8.533V180.2c0-4.719,3.814-8.533,8.533-8.533
			s8.533,3.814,8.533,8.533v34.133C264.533,219.052,260.719,222.867,256,222.867"/>
		<path style="fill:#285680;" d="M322.167,257H189.832c-2.859,0-5.521-1.434-7.108-3.814c-1.579-2.389-1.869-5.402-0.759-8.038
			c3.831-9.062,5.769-18.321,5.769-27.494v-3.319c0-4.719,3.814-8.533,8.533-8.533h119.467c4.719,0,8.533,3.814,8.533,8.533v3.319
			c0,9.173,1.946,18.432,5.769,27.494c1.109,2.637,0.828,5.649-0.759,8.038C327.688,255.566,325.025,257,322.167,257"/>
	</g>
</g>
<g>
</g>
<g>
</g>
<g>
</g>
<g>
</g>
<g>
</g>
<g>
</g>
<g>
</g>
<g>
</g>
<g>
</g>
<g>
</g>
<g>
</g>
<g>
</g>
<g>
</g>
<g>
</g>
<g>
</g>
</svg>
