<?xml version="1.0" encoding="iso-8859-1"?>
<!-- Generator: Adobe Illustrator 19.0.0, SVG Export Plug-In . SVG Version: 6.00 Build 0)  -->
<svg version="1.1" id="Layer_1" xmlns="http://www.w3.org/2000/svg" xmlns:xlink="http://www.w3.org/1999/xlink" x="0px" y="0px"
	 viewBox="0 0 512.001 512.001" style="enable-background:new 0 0 512.001 512.001;" xml:space="preserve">
<path style="fill:#22313F;" d="M494.934,445.97H356.485c-9.425,0-17.067-7.641-17.067-17.067V199.46
	c0-5.04,2.228-9.822,6.087-13.066L483.955,70.049c11.075-9.305,28.046-1.42,28.046,13.066v345.788
	C512.001,438.329,504.361,445.97,494.934,445.97z"/>
<path style="fill:#FFD155;" d="M437.514,317.891h-21.588c-9.425,0-17.067-7.641-17.067-17.067s7.641-17.067,17.067-17.067h21.588
	c9.425,0,17.067,7.641,17.067,17.067S446.939,317.891,437.514,317.891z"/>
<path style="fill:#36495E;" d="M356.485,445.97H218.036c-9.425,0-17.067-7.641-17.067-17.067V199.46
	c0-5.04,2.228-9.822,6.087-13.066L345.504,70.049c11.074-9.307,28.046-1.42,28.046,13.066v345.788
	C373.552,438.329,365.91,445.97,356.485,445.97z"/>
<path style="fill:#6A82A1;" d="M218.036,445.97H17.069c-10.059,0-17.937-8.668-16.992-18.674L27.4,138.577
	c0.829-8.763,8.187-15.459,16.992-15.459h146.324c8.802,0,16.161,6.695,16.992,15.459l27.323,288.72
	C235.974,437.311,228.088,445.97,218.036,445.97z"/>
<path style="fill:#36495E;" d="M208.73,157.251H26.373c-9.425,0-17.067-7.641-17.067-17.067V83.116
	c0-9.425,7.641-17.067,17.067-17.067H208.73c9.425,0,17.067,7.641,17.067,17.067v57.069
	C225.797,149.609,218.157,157.251,208.73,157.251z"/>
<g>
	<path style="fill:#FFDA79;" d="M144.093,344.433H91.011c-9.425,0-17.067-7.641-17.067-17.067v-53.083
		c0-9.425,7.641-17.067,17.067-17.067h53.082c9.425,0,17.067,7.641,17.067,17.067v53.082
		C161.16,336.792,153.519,344.433,144.093,344.433z"/>
	<path style="fill:#FFDA79;" d="M298.054,317.891h-21.588c-9.425,0-17.067-7.641-17.067-17.067s7.641-17.067,17.067-17.067h21.588
		c9.425,0,17.067,7.641,17.067,17.067S307.479,317.891,298.054,317.891z"/>
</g>
<path style="fill:#2C3E50;" d="M345.504,70.051l-58.245,48.946v326.975h69.225c9.425,0,17.067-7.641,17.067-17.067V83.116
	C373.552,68.631,356.578,60.744,345.504,70.051z"/>
<path style="fill:#FFD155;" d="M298.054,283.759h-10.794v34.133h10.794c9.425,0,17.067-7.641,17.067-17.067
	S307.479,283.759,298.054,283.759z"/>
<g>
</g>
<g>
</g>
<g>
</g>
<g>
</g>
<g>
</g>
<g>
</g>
<g>
</g>
<g>
</g>
<g>
</g>
<g>
</g>
<g>
</g>
<g>
</g>
<g>
</g>
<g>
</g>
<g>
</g>
</svg>
