<svg id="a795eda2-11f8-48ff-ad32-a082a9b50d91" data-name="圖層 1" xmlns="http://www.w3.org/2000/svg" viewBox="0 0 628 425"><path d="M613.9-11.2q0,209.4.1,419c0,3.4-.4,4.7-4.4,4.7q-309.6-.2-619.2,0c-4,0-4.4-1.3-4.4-4.7q.1-209.5.1-419ZM178,174.8c-14.2-20.3-27.5-39.5-41-59a85.4,85.4,0,0,0,14.3-5c15.1-7.6,24.1-19.6,24.4-36.5s-8-29-22.8-36.9a65.1,65.1,0,0,0-26.1-7.7c-24.8-2-49.6-.5-74.4-1-2.7,0-3.4,1-3.4,3.5q.2,69.4,0,139c0,2.9,1,3.7,3.8,3.6,8.9-.1,17.9-.1,26.9,0,3.2.1,4.3-.8,4.3-4.2-.2-14.6-.1-29.2-.1-43.8,0-8.6.1-8.2,8.7-8.7,5.3-.3,8.3,1.3,11.2,5.8,10.2,16,20.9,31.6,31.4,47.4,1.1,1.6,1.9,3.5,4.4,3.5C151.9,174.7,164.2,174.8,178,174.8Zm28.4-73V170c0,2.6-.3,4.9,3.6,4.9h93c2.9,0,3.8-1,3.7-3.8a148.1,148.1,0,0,1,0-14.9c.4-4.4-1-5.7-5.5-5.6-18.5.2-37,0-55.5.1-3.4.1-4.6-1-4.5-4.5.2-9.6.3-19.3,0-28.9-.1-3.9,1.1-5,5-4.9,16.3.2,32.6,0,49,.1,3,.1,4-.8,3.9-3.9a131.9,131.9,0,0,1,0-15.4c.2-3.7-1.3-4.4-4.6-4.4-16.2.2-32.3,0-48.5.1-3.6.1-4.9-.9-4.8-4.7.3-8.6.3-17.3,0-25.9-.2-4.4,1.2-5.6,5.5-5.5,18.5.2,37,0,55.5.2,3.5,0,4.7-1.1,4.5-4.6a138.3,138.3,0,0,1,0-14.4c.3-4.2-1.2-5.3-5.3-5.3-30,.2-59.9.2-89.9,0-4.3,0-5.2,1.4-5.2,5.4C206.5,56.6,206.4,79.2,206.4,101.8ZM151.3,251.7c.1-27.7-21.3-48.3-50.4-48.5s-51.4,20.6-51.5,48.1S71,299.6,99.5,299.8C129.5,299.9,151.2,279.8,151.3,251.7ZM163,236.2c0,8.8-.1,17.6.1,26.4.2,16.9,10.4,30.3,26.6,35.2a53.6,53.6,0,0,0,21.8,1.7c24.5-2.8,36.5-19,36.8-36.9s.2-36.5.4-54.8c0-2.5-1.3-3-3.5-3h-12c-12.4,0-12.3,0-12.4,12.3-.2,15,.7,30-.5,44.9-.8,9-6.3,13.2-15.7,12.9s-13.1-4.8-13.8-13.8c-.1-1.8-.1-3.6-.1-5.4,0-15.5-.1-30.9,0-46.4.1-3.4-.8-4.7-4.4-4.6-6.3.3-12.7.3-19,0-3.7-.1-4.4,1.3-4.3,4.6C163.2,218.3,163,227.2,163,236.2Zm185.1,15.7c0,14.1.2,28.2-.1,42.3-.1,3.9,1.2,4.8,4.8,4.6,6.2-.3,12.3-.2,18.5,0,3.6.2,4.9-.6,4.8-4.5-.3-9.1.1-18.3-.2-27.4-.2-4.1,1.3-5,5.1-4.9,6.6.3,13.3,0,19.9.2,3.2.1,4.6-.7,4.4-4.1a80.1,80.1,0,0,1,0-12c.2-3.1-.7-4.5-4.1-4.2s-9,0-13.5,0c-12.2,0-12.1,0-11.8-12.4.1-2.8.8-3.8,3.7-3.7,6.6.2,13.3.2,19.9,0s11.9,2.2,15-.8.6-10.1,1.1-15.3c.4-3.5-.6-5-4.5-5-19.5.2-39,.2-58.4,0-3.9,0-4.7,1.3-4.7,4.9C348.2,223.7,348.1,237.8,348.1,251.9Zm-49.6-47.1H262c-2.8-.1-4.3.5-4.1,3.8s.2,9.3.1,13.9c-.1,2.6.8,3.5,3.4,3.4,5.8-.1,11.7.2,17.5-.1,4.1-.3,5.2,1,5.2,5.2-.2,21,0,42.1-.2,63.2,0,3.8,1.1,4.8,4.7,4.6a135.1,135.1,0,0,1,18,.1c4.7.4,5.4-1.5,5.4-5.6-.2-21,0-41.9-.2-62.8,0-3.7.9-4.9,4.7-4.7,5.8.3,11.6-.1,17.5.1,3.1.1,4.5-.7,4.3-4.1a86.9,86.9,0,0,1,0-12.5c.3-3.9-1.3-4.6-4.9-4.6C321.8,204.9,310.1,204.8,298.5,204.8Zm206.6,0c-12,0-24,.1-36-.1-3.5,0-4.7,1.1-4.4,4.5s.1,8.7,0,13,.8,3.8,3.7,3.7c5.8-.2,11.7.2,17.5-.1,4.2-.3,5.2,1.1,5.1,5.2-.2,20.9.1,41.8-.2,62.7,0,4.3,1.3,5.4,5.3,5.1a170.3,170.3,0,0,1,17.5,0c4,.3,5.4-.8,5.3-5.1-.2-21.1,0-42.1-.2-63.2,0-3.8,1-4.9,4.8-4.7,5.8.3,11.6-.1,17.4.1,3,.1,4.3-.6,4.1-3.8a119.8,119.8,0,0,1,0-13.4c.2-3.2-1-4-4-3.9ZM427,251.9c0,14.1.1,28.2-.1,42.3-.1,3.9,1.1,4.8,4.7,4.6,6.5-.3,13-.1,19.5,0,2.7.1,3.8-.6,3.8-3.5q-.1-43.4,0-86.6c0-3.2-1.1-4-4-3.9-6.5.1-13,.2-19.5-.1-3.4-.1-4.6.9-4.5,4.4C427.1,223.4,427,237.7,427,251.9ZM112,340.6H66.6c-5.3,0-10.6.3-15.9.4-1.4,5.7-.2,11.5-.7,17.2-.2,2.6.8,3.4,3.4,3.4q58.7-.2,117.4,0c2.7,0,3.4-.9,3.3-3.5a111,111,0,0,1,0-12.9c.3-3.7-.9-4.7-4.7-4.7C150.3,340.7,131.2,340.6,112,340.6ZM512.4,91.4c-1.2-1.7-.8-3.2-.8-4.6-.9-24-14.1-42.3-37.3-49.1-29.5-8.7-54.3.9-75.4,21.8-4.9,4.9-4.5,5.3,1.4,8.6,3.9,2.1,4.5-1.7,6-3.2,18-18,39.2-25.3,64.1-18.2,21.6,6.1,35.1,28.8,29.8,49.4-3.8-3.4-7.5-6.6-11-10.1-1.6-1.5-2.6-1.6-4.1,0a29.8,29.8,0,0,1-3.6,3.5c-1.5,1.2-1.6,2.2-.1,3.5,5.9,5.4,11.7,10.9,17.7,16.2,2.4,2.2,5.2,2.1,7.6-.1l20.1-18.6c1.7-1.5,3-3,.3-4.6s-3.1-5.6-6.7-1.9S515.2,88.9,512.4,91.4Zm-120.6,3c3.9,3.6,7.3,7,11.1,10.2s5.2-2,7.6-3.4.9-2.8-.5-4.1L393.9,82.2c-3.1-2.9-6.1-2.8-9.2.2l-19.4,17.9c-1.2,1.2-3.3,2.5-.6,4.1s3.1,6.2,7,2.4l8-7.4c.7.4.9.4.9.5l.3,6c.8,19.6,10.2,34,27.3,43.2,12.4,6.7,25.8,8.4,39.7,6.2A77.4,77.4,0,0,0,495.2,129c.8-.9,2.7-1.7.9-3.6-3.4-3.7-6.5-3.6-10,.1-17,17.6-37.4,25-61.5,19.4S387,117.2,391.8,94.4Zm-120,258.2c0,7.1,6.5,10.9,13.9,8.1,1.7-.6,3.4-3.2,5.4.1.7,1.1,2.4,0,2.7-1.6,1.3-6,2.5-12,3.8-18,.2-1,.4-2-1-2.3a1.7,1.7,0,0,0-2.3,1.3c-.4,1.7-.9,1.4-2.3.6C282.5,335.5,271.9,341.8,271.8,352.6Zm265.4,9a12.7,12.7,0,0,0,7.6-2.4c1.7-1.2,4.6-3.1,3.3-4.7s-3.2,1-4.6,2.1c-3.4,2.7-8.6,2.8-11.1.4s-2-2.8-1.3-4.5,2.3-1,3.4-1c3.7-.1,7.4,0,11,0s6.2-2,5.1-6.4-3.5-5.9-7.3-6.4c-7.6-1-14.1,3.7-15.6,11.4S529.9,361.5,537.2,361.6Zm-270.5-7.1c-2.4-1.3-3.4.5-4.7,1.7-3.5,3-8.8,3.4-11.4.8a4.4,4.4,0,0,1-1.5-4.4c.5-1.8,2.2-1.1,3.4-1.1,4.2-.1,8.3-.2,12.5,0,2.6.1,3.6-1.1,3.8-3.4s-.8-6.8-4.5-8.6c-5.8-2.7-13.8.2-17.1,6.3s-2.2,11.7,1.9,14.3,13.2,1.2,17.5-4.8A3.7,3.7,0,0,1,266.7,354.5Zm58.4,7.1a13.4,13.4,0,0,0,10.9-5.2c.4-.6,1.3-1.2.4-2.1a1.8,1.8,0,0,0-2.3,0c-1.1.8-1.9,1.9-3,2.7-3.6,2.7-9,2.2-11.2-.9-.7-1.2-1.3-2.4-.7-3.8s2-.8,3-.8c3.9-.1,7.7,0,11.5,0s6.2-1.8,5.1-6.4-3.5-5.9-7.3-6.4c-7.9-1-14.4,4-15.7,11.9S318.3,361.5,325.1,361.6Zm61.3-.1c7.9.1,14.5-6.4,14.4-14,0-5.4-3.7-8.8-9.7-8.9a14.1,14.1,0,0,0-14.4,14C376.8,358.2,380.3,361.5,386.4,361.5Zm18.4-8.3c0,6.8,4.9,9.7,11.4,8,1.4-.4,2.6-2.5,4.4-1s3.2.5,3.6-1.6c1.2-5.7,2.5-11.3,3.6-17,.2-1,.7-2.5-1.1-2.8s-1.9,1.1-2.2,2.2-.4,2-.6,2.9c-.8,3.4-1.3,6.9-2.6,10.1s-5.5,5.5-9.6,4.4-3.9-4.6-3-8.1,1.1-5.9,1.8-8.8c.2-1.2.6-2.4-1.2-2.7s-1.8.6-2.1,1.7C406.3,345.1,405.4,349.6,404.8,353.2Zm98.5,3.9L500,342.7c-.4-1.7-.1-4.4-2.7-3.8s-1,2.9-.7,4.4c2.4,9.5,6,19.1-2,27.9,2.5,1.1,3.5-.6,4.6-2.4,5.4-8.7,11-17.4,16.4-26.1.7-1.1,2.7-2.6,1-3.7s-2.8,1-3.7,2.4Zm-149.7,14c1.5.6,2.8.7,3.8-.9,6.4-10.3,12.9-20.5,19.3-30.6l-1.8-1.4c-5.3,4.9-7.6,12.5-12.7,18.3-1.2-5.4-2.3-10.2-3.3-15.1-.3-1.6-.9-3.1-2.9-2.5s-.8,2.2-.6,3.4a17,17,0,0,0,.9,3.9C359.4,354.9,360.4,363.4,353.6,371.1ZM466,361.6c.6-.2,2.1-.4,3.5-.9,3-1.1,5.3-3,5.3-6.4s-2.9-4.1-5.4-5a38.9,38.9,0,0,1-4.1-1.6c-2.9-1.6-2.8-3.8-.1-5.3s5.6-1.9,7.5,1.1c.9,1.4,1.6,2.9,3.1,1.8s.6-3.2-.5-4.4-5.6-2.6-8.7-2-5.7,2-6.7,5.2.5,5.2,3.3,6.4l5.7,1.8a3,3,0,0,1,2.2,2.4,2.9,2.9,0,0,1-2,3.1c-3.1,1.3-6.2,1.8-8.3-1.6-.9-1.4-2-2.1-3.2-1s-.4,2.4.4,3.5S462.4,361.5,466,361.6Zm-248-23a13.4,13.4,0,0,0-13.1,9.6c-2.1,5.9-.4,10.7,4.3,12.6s13.4-.5,15.5-4.8a6.5,6.5,0,0,0,.4-1.9c-.8-.1-1.8-.5-2.4-.2s-1.7,2-2.8,2.8c-4,3.2-9.9,2.6-11.8-1.2s.5-10.2,4.4-12.7,7.9-1.7,11.1,2.4c.9,1.2,1.8,1.6,2.9,1s.7-2.1.2-3.1C224.9,339.5,221.7,338.5,218,338.6Zm93.1,20.3c-6.6.4-6.4-3.2-5.1-7.5a17.4,17.4,0,0,0,.7-2.9c.7-3.6.3-8.1,6.3-7a1.3,1.3,0,0,0,1.6-1.4c0-1.1-.8-1.4-1.7-1.3-2.6.1-4.8,0-3.6-3.7a1.2,1.2,0,0,0-1.3-1.6c-3.4.4-1.5,6.2-5.8,5.9a13,13,0,0,0-.2,1.8c0,.1.2.2.4.3,3.4.7,1.4,3.1,1.2,4.7-.4,3.3-1.3,6.5-1.8,9.8s0,4.2,2.5,4.7S309.1,362.4,311.1,358.9Zm169.7-3.8c-.2,4.9,2.4,6.9,6.8,6.1.8-.2,1.7-.4,1.9-1.3s-1.1-1.3-2-1.3c-3.3-.2-3.8-1.8-3-4.7a44.8,44.8,0,0,0,1.4-7.3c.5-3.2,1.2-5.9,5.5-5a1.7,1.7,0,0,0,2.2-1.4c.1-1.4-1.1-1.5-2.1-1.4-2.6.2-4.3-.4-3.3-3.5.3-1,0-1.7-1.1-1.8s-1.8-.1-2,1-1,4.3-3.9,4.8c-.4.1-1,1.7,0,2,3.6,1.1,1.6,3.5,1.3,5.3S481.3,352.8,480.8,355.1Zm36.6,3.9c0,.5-.6,1.7.9,2s2.3-.7,2.6-2.2c1.6-8.1,3.3-16.2,4.9-24.4.2-1.1,1.1-2.9-.9-3.2s-2,1.3-2.3,2.6Zm-86.7-.4c-.2,1-.6,2.1.8,2.4a1.9,1.9,0,0,0,2.4-1.8c.4-1.8.8-3.6,1.1-5.4,1.1-5.6,1.7-11.5,9.3-12.1,1.4-.1,1.8-1.4,1.3-2.7s-10.8.5-11.1,1.1a1.6,1.6,0,0,0-.3.9C433,346.9,431.8,352.7,430.7,358.6ZM230,358.2c0,1-.8,2.5.9,2.8s2.1-1.1,2.4-2.4,1.1-4.5,1.4-6.8c.7-5.2,2.4-9.4,8.5-10a1.7,1.7,0,0,0,1.7-2.4c-.4-1.2-1.7-.6-2.6-.6s-3.2,2.7-5.2,1-3.2-.6-3.6,1.4C232.3,346.8,231.2,352.5,230,358.2Z" transform="translate(14 12.5)" fill="#495bfe"/><path d="M613.9-11.2H-13.9c.2-.4-.5-1.1.5-1.1H609.4C610.9-12.2,612.8-13.3,613.9-11.2Z" transform="translate(14 12.5)" fill="#fcfcfe"/><path d="M178,174.8c-13.8,0-26.1-.1-38.4,0-2.5,0-3.3-1.9-4.4-3.5-10.5-15.8-21.2-31.4-31.4-47.4-2.9-4.5-5.9-6.1-11.2-5.8-8.6.5-8.7.1-8.7,8.7,0,14.6-.1,29.2.1,43.8,0,3.4-1.1,4.3-4.3,4.2-9-.1-18-.1-26.9,0-2.8.1-3.8-.7-3.8-3.6q.2-69.4,0-139c0-2.5.7-3.5,3.4-3.5,24.8.5,49.6-1,74.4,1a65.1,65.1,0,0,1,26.1,7.7c14.8,7.9,23.2,20.1,22.8,36.9s-9.3,28.9-24.4,36.5a85.4,85.4,0,0,1-14.3,5C150.5,135.3,163.8,154.5,178,174.8ZM83.9,74V92.4c0,1.8,0,3.4,2.5,3.3,12-.3,24,1.2,35.9-.9S140.2,85,140,74.1s-6.4-17.7-18-19.7-23.6-.6-35.4-1c-2.4-.1-2.7,1.2-2.7,3.1C84,62.4,83.9,68.2,83.9,74Z" transform="translate(14 12.5)" fill="#fcfcfe"/><path d="M206.4,101.8c0-22.6.1-45.2-.1-67.8,0-4,.9-5.4,5.2-5.4,30,.2,59.9.2,89.9,0,4.1,0,5.6,1.1,5.3,5.3a138.3,138.3,0,0,0,0,14.4c.2,3.5-1,4.6-4.5,4.6-18.5-.2-37,0-55.5-.2-4.3-.1-5.7,1.1-5.5,5.5.3,8.6.3,17.3,0,25.9-.1,3.8,1.2,4.8,4.8,4.7,16.2-.1,32.3.1,48.5-.1,3.3,0,4.8.7,4.6,4.4a131.9,131.9,0,0,0,0,15.4c.1,3.1-.9,4-3.9,3.9-16.4-.1-32.7.1-49-.1-3.9-.1-5.1,1-5,4.9.3,9.6.2,19.3,0,28.9-.1,3.5,1.1,4.6,4.5,4.5,18.5-.1,37,.1,55.5-.1,4.5-.1,5.9,1.2,5.5,5.6a148.1,148.1,0,0,0,0,14.9c.1,2.8-.8,3.8-3.7,3.8H210c-3.9,0-3.6-2.3-3.6-4.9Z" transform="translate(14 12.5)" fill="#fafafd"/><path d="M151.3,251.7c-.1,28.1-21.8,48.2-51.8,48.1-28.5-.2-50.1-21.1-50.1-48.5s22.4-48.4,51.5-48.1S151.4,224,151.3,251.7Zm-51-24.1c-14,.1-22.5,9.2-22.4,24.2s8.7,23.4,22.6,23.4,22.5-9.3,22.5-23.6S114.3,227.6,100.3,227.6Z" transform="translate(14 12.5)" fill="#fcfcfe"/><path d="M163,236.2c0-9,.2-17.9,0-26.9-.1-3.3.6-4.7,4.3-4.6,6.3.3,12.7.3,19,0,3.6-.1,4.5,1.2,4.4,4.6-.1,15.5,0,30.9,0,46.4,0,1.8,0,3.6.1,5.4q1,13.5,13.8,13.8c9.4.3,14.9-3.9,15.7-12.9,1.2-14.9.3-29.9.5-44.9.1-12.3,0-12.3,12.4-12.3h12c2.2,0,3.5.5,3.5,3-.2,18.3-.1,36.5-.4,54.8s-12.3,34.1-36.8,36.9a53.6,53.6,0,0,1-21.8-1.7c-16.2-4.9-26.4-18.3-26.6-35.2C162.9,253.8,163,245,163,236.2Z" transform="translate(14 12.5)" fill="#fcfcfe"/><path d="M348.1,251.9c0-14.1.1-28.2-.1-42.3,0-3.6.8-4.9,4.7-4.9,19.4.2,38.9.2,58.4,0,3.9,0,4.9,1.5,4.5,5-.5,5.2,2.3,12-1.1,15.3s-9.8.7-15,.8-13.3.2-19.9,0c-2.9-.1-3.6.9-3.7,3.7-.3,12.4-.4,12.4,11.8,12.4,4.5,0,9,.2,13.5,0s4.3,1.1,4.1,4.2a80.1,80.1,0,0,0,0,12c.2,3.4-1.2,4.2-4.4,4.1-6.6-.2-13.3.1-19.9-.2-3.8-.1-5.3.8-5.1,4.9.3,9.1-.1,18.3.2,27.4.1,3.9-1.2,4.7-4.8,4.5-6.2-.2-12.3-.3-18.5,0-3.6.2-4.9-.7-4.8-4.6C348.3,280.1,348.1,266,348.1,251.9Z" transform="translate(14 12.5)" fill="#fcfcfe"/><path d="M298.5,204.8c11.6,0,23.3.1,34.9-.1,3.6,0,5.2.7,4.9,4.6a86.9,86.9,0,0,0,0,12.5c.2,3.4-1.2,4.2-4.3,4.1-5.9-.2-11.7.2-17.5-.1-3.8-.2-4.7,1-4.7,4.7.2,20.9,0,41.8.2,62.8,0,4.1-.7,6-5.4,5.6a135.1,135.1,0,0,0-18-.1c-3.6.2-4.7-.8-4.7-4.6.2-21.1,0-42.2.2-63.2,0-4.2-1.1-5.5-5.2-5.2-5.8.3-11.7,0-17.5.1-2.6.1-3.5-.8-3.4-3.4.1-4.6.2-9.3-.1-13.9s1.3-3.9,4.1-3.8Z" transform="translate(14 12.5)" fill="#fcfcfe"/><path d="M505.1,204.8H541c3-.1,4.2.7,4,3.9a119.8,119.8,0,0,0,0,13.4c.2,3.2-1.1,3.9-4.1,3.8-5.8-.2-11.6.2-17.4-.1-3.8-.2-4.8.9-4.8,4.7.2,21.1,0,42.1.2,63.2.1,4.3-1.3,5.4-5.3,5.1a170.3,170.3,0,0,0-17.5,0c-4,.3-5.3-.8-5.3-5.1.3-20.9,0-41.8.2-62.7.1-4.1-.9-5.5-5.1-5.2-5.8.3-11.7-.1-17.5.1-2.9.1-3.8-.9-3.7-3.7s.2-8.7,0-13,.9-4.5,4.4-4.5C481.1,204.9,493.1,204.8,505.1,204.8Z" transform="translate(14 12.5)" fill="#fcfcfe"/><path d="M427,251.9c0-14.2.1-28.5-.1-42.8-.1-3.5,1.1-4.5,4.5-4.4,6.5.3,13,.2,19.5.1,2.9-.1,4,.7,4,3.9q-.1,43.2,0,86.6c0,2.9-1.1,3.6-3.8,3.5-6.5-.1-13-.3-19.5,0-3.6.2-4.8-.7-4.7-4.6C427.1,280.1,427,266,427,251.9Z" transform="translate(14 12.5)" fill="#fcfcfe"/><path d="M112,340.6c19.2,0,38.3.1,57.4-.1,3.8,0,5,1,4.7,4.7a111,111,0,0,0,0,12.9c.1,2.6-.6,3.5-3.3,3.5q-58.8-.2-117.4,0c-2.6,0-3.6-.8-3.4-3.4.5-5.7-.7-11.5.7-17.2,5.3-.1,10.6-.4,15.9-.4Z" transform="translate(14 12.5)" fill="#fcfcfe"/><path d="M512.4,91.4c2.8-2.5,5.5-4.9,8-7.4s4.7.7,6.7,1.9,1.4,3.1-.3,4.6l-20.1,18.6c-2.4,2.2-5.2,2.3-7.6.1-6-5.3-11.8-10.8-17.7-16.2-1.5-1.3-1.4-2.3.1-3.5a29.8,29.8,0,0,0,3.6-3.5c1.5-1.6,2.5-1.5,4.1,0,3.5,3.5,7.2,6.7,11,10.1,5.3-20.6-8.2-43.3-29.8-49.4-24.9-7.1-46.1.2-64.1,18.2-1.5,1.5-2.1,5.3-6,3.2-5.9-3.3-6.3-3.7-1.4-8.6C420,38.6,444.8,29,474.3,37.7c23.2,6.8,36.4,25.1,37.3,49.1C511.6,88.2,511.2,89.7,512.4,91.4Z" transform="translate(14 12.5)" fill="#fafafd"/><path d="M391.8,94.4c-4.8,22.8,9.7,45.2,32.8,50.5s44.5-1.8,61.5-19.4c3.5-3.7,6.6-3.8,10-.1,1.8,1.9-.1,2.7-.9,3.6a77.4,77.4,0,0,1-47.3,26.3c-13.9,2.2-27.3.5-39.7-6.2-17.1-9.2-26.5-23.6-27.3-43.2l-.3-6c0-.1-.2-.1-.9-.5l-8,7.4c-3.9,3.8-4.9-1.1-7-2.4s-.6-2.9.6-4.1l19.4-17.9c3.1-3,6.1-3.1,9.2-.2L410,97.1c1.4,1.3,3.2,2.7.5,4.1s-3.2,7.1-7.6,3.4S395.7,98,391.8,94.4Z" transform="translate(14 12.5)" fill="#fafafd"/><path d="M271.8,352.6c.1-10.8,10.7-17.1,20.2-11.8,1.4.8,1.9,1.1,2.3-.6a1.7,1.7,0,0,1,2.3-1.3c1.4.3,1.2,1.3,1,2.3-1.3,6-2.5,12-3.8,18-.3,1.6-2,2.7-2.7,1.6-2-3.3-3.7-.7-5.4-.1C278.3,363.5,271.8,359.7,271.8,352.6Zm10.3,6.1a10.4,10.4,0,0,0,10.2-10.1c.2-4.6-2.3-7.2-6.9-7.1a10.5,10.5,0,0,0-10.1,10.3C275.2,356,277.8,358.6,282.1,358.7Z" transform="translate(14 12.5)" fill="#fafafd"/><path d="M537.2,361.6c-7.3-.1-10.9-4.7-9.5-11.5s8-12.4,15.6-11.4c3.8.5,6.4,2.5,7.3,6.4s-.5,6.3-5.1,6.4-7.3-.1-11,0c-1.1,0-2.8-.7-3.4,1s.1,3.2,1.3,4.5,7.7,2.3,11.1-.4c1.4-1.1,3-4.2,4.6-2.1s-1.6,3.5-3.3,4.7A12.7,12.7,0,0,1,537.2,361.6Zm2.1-12.9a10.4,10.4,0,0,0,2.5,0c1.9-.5,5.3,1.6,5.3-2.3s-2.6-4.7-5.8-4.9a8.9,8.9,0,0,0-5.3,1.2c-1.8,1.2-4.2,2.7-3.8,4.8s3.4.8,5.1,1.2A13.3,13.3,0,0,0,539.3,348.7Z" transform="translate(14 12.5)" fill="#fafafd"/><path d="M266.7,354.5a3.7,3.7,0,0,0-.1.8c-4.3,6-12.2,8.2-17.5,4.8s-4.9-8.7-1.9-14.3,11.3-9,17.1-6.3c3.7,1.8,4.8,4.9,4.5,8.6s-1.2,3.5-3.8,3.4c-4.2-.2-8.3-.1-12.5,0-1.2,0-2.9-.7-3.4,1.1a4.4,4.4,0,0,0,1.5,4.4c2.6,2.6,7.9,2.2,11.4-.8C263.3,355,264.3,353.2,266.7,354.5Zm-9.4-5.8a15,15,0,0,0,3,0c1.8-.5,4.9,1.5,4.9-2.2s-2-4.5-4.7-4.9a9.4,9.4,0,0,0-5.9.9c-2,1.1-4.7,2.7-4.3,4.9s3.6.8,5.5,1.3A7.5,7.5,0,0,0,257.3,348.7Z" transform="translate(14 12.5)" fill="#fafafd"/><path d="M325.1,361.6c-6.8-.1-10.4-4.3-9.3-11s7.8-12.9,15.7-11.9c3.8.5,6.4,2.5,7.3,6.4s-.4,6.3-5.1,6.4-7.6-.1-11.5,0c-1,0-2.5-.5-3,.8s0,2.6.7,3.8c2.2,3.1,7.6,3.6,11.2.9,1.1-.8,1.9-1.9,3-2.7a1.8,1.8,0,0,1,2.3,0c.9.9,0,1.5-.4,2.1A13.4,13.4,0,0,1,325.1,361.6Zm2.4-12.9a14,14,0,0,0,2.9,0c1.8-.4,4.9,1.4,5-2.2s-2.1-4.6-5.1-4.9a9,9,0,0,0-6.2,1.2c-1.8,1.2-4.2,2.8-3.7,4.8s3.3.7,5.1,1.1A13.3,13.3,0,0,0,327.5,348.7Z" transform="translate(14 12.5)" fill="#fafafd"/><path d="M386.4,361.5c-6.1,0-9.6-3.3-9.7-8.9a14.1,14.1,0,0,1,14.4-14c6,.1,9.7,3.5,9.7,8.9C400.9,355.1,394.3,361.6,386.4,361.5Zm4-20c-5.5,0-10.3,4.9-10.4,10.6,0,3.8,2.6,6.4,6.6,6.6a10.6,10.6,0,0,0,10.6-10.4C397.3,344.1,394.8,341.5,390.4,341.5Z" transform="translate(14 12.5)" fill="#fafafd"/><path d="M404.8,353.2c.6-3.6,1.5-8.1,2.4-12.7.3-1.1.9-1.8,2.1-1.7s1.4,1.5,1.2,2.7c-.7,2.9-1.1,5.9-1.8,8.8s-1.2,6.9,3,8.1,7.8-.4,9.6-4.4,1.8-6.7,2.6-10.1c.2-.9.3-1.9.6-2.9s.6-2.4,2.2-2.2,1.3,1.8,1.1,2.8c-1.1,5.7-2.4,11.3-3.6,17-.4,2.1-1.2,3.6-3.6,1.6s-3,.6-4.4,1C409.7,362.9,404.8,360,404.8,353.2Z" transform="translate(14 12.5)" fill="#fafafd"/><path d="M503.3,357.1l9.6-15.7c.9-1.4,1.9-3.6,3.7-2.4s-.3,2.6-1,3.7c-5.4,8.7-11,17.4-16.4,26.1-1.1,1.8-2.1,3.5-4.6,2.4,8-8.8,4.4-18.4,2-27.9-.3-1.5-2-3.8.7-4.4s2.3,2.1,2.7,3.8Z" transform="translate(14 12.5)" fill="#fafafd"/><path d="M353.6,371.1c6.8-7.7,5.8-16.2,2.7-24.9a17,17,0,0,1-.9-3.9c-.2-1.2-1.2-2.8.6-3.4s2.6.9,2.9,2.5c1,4.9,2.1,9.7,3.3,15.1,5.1-5.8,7.4-13.4,12.7-18.3l1.8,1.4c-6.4,10.1-12.9,20.3-19.3,30.6C356.4,371.8,355.1,371.7,353.6,371.1Z" transform="translate(14 12.5)" fill="#fafafd"/><path d="M466,361.6c-3.6-.1-6.2-.6-8-2.9s-1.6-2.5-.4-3.5,2.3-.4,3.2,1c2.1,3.4,5.2,2.9,8.3,1.6a2.9,2.9,0,0,0,2-3.1,3,3,0,0,0-2.2-2.4l-5.7-1.8c-2.8-1.2-4.2-3.3-3.3-6.4s3.7-4.6,6.7-5.2,6.4-.7,8.7,2,2.2,3.1.5,4.4-2.2-.4-3.1-1.8c-1.9-3-4.9-2.5-7.5-1.1s-2.8,3.7.1,5.3a38.9,38.9,0,0,0,4.1,1.6c2.5.9,5.4,1.6,5.4,5s-2.3,5.3-5.3,6.4C468.1,361.2,466.6,361.4,466,361.6Z" transform="translate(14 12.5)" fill="#fafafd"/><path d="M218,338.6c3.7-.1,6.9.9,8.7,4.5.5,1,1.1,2.4-.2,3.1s-2,.2-2.9-1c-3.2-4.1-7.2-4.8-11.1-2.4s-6.2,9-4.4,12.7,7.8,4.4,11.8,1.2c1.1-.8,1.8-2.1,2.8-2.8s1.6.1,2.4.2a6.5,6.5,0,0,1-.4,1.9c-2.1,4.3-10.3,6.9-15.5,4.8s-6.4-6.7-4.3-12.6A13.4,13.4,0,0,1,218,338.6Z" transform="translate(14 12.5)" fill="#fafafd"/><path d="M311.1,358.9c-2,3.5-4.6,2.3-6.8,1.8s-2.8-2.7-2.5-4.7,1.4-6.5,1.8-9.8c.2-1.6,2.2-4-1.2-4.7-.2-.1-.4-.2-.4-.3a13,13,0,0,1,.2-1.8c4.3.3,2.4-5.5,5.8-5.9a1.2,1.2,0,0,1,1.3,1.6c-1.2,3.7,1,3.8,3.6,3.7.9-.1,1.7.2,1.7,1.3a1.3,1.3,0,0,1-1.6,1.4c-6-1.1-5.6,3.4-6.3,7a17.4,17.4,0,0,1-.7,2.9C304.7,355.7,304.5,359.3,311.1,358.9Z" transform="translate(14 12.5)" fill="#fafafd"/><path d="M480.8,355.1c.5-2.3,1.3-5.4,1.7-8.5s2.3-4.2-1.3-5.3c-1-.3-.4-1.9,0-2,2.9-.5,3.6-2.4,3.9-4.8s1.2-1.1,2-1,1.4.8,1.1,1.8c-1,3.1.7,3.7,3.3,3.5,1-.1,2.2,0,2.1,1.4a1.7,1.7,0,0,1-2.2,1.4c-4.3-.9-5,1.8-5.5,5a44.8,44.8,0,0,1-1.4,7.3c-.8,2.9-.3,4.5,3,4.7.9,0,2.3-.3,2,1.3s-1.1,1.1-1.9,1.3C483.2,362,480.6,360,480.8,355.1Z" transform="translate(14 12.5)" fill="#fafafd"/><path d="M517.4,359l5.2-25.2c.3-1.3.4-3,2.3-2.6s1.1,2.1.9,3.2c-1.6,8.2-3.3,16.3-4.9,24.4-.3,1.5-.9,2.6-2.6,2.2S517.4,359.5,517.4,359Z" transform="translate(14 12.5)" fill="#fafafd"/><path d="M430.7,358.6c1.1-5.9,2.3-11.7,3.5-17.6a1.6,1.6,0,0,1,.3-.9c.3-.6,10.8-1.6,11.1-1.1s.1,2.6-1.3,2.7c-7.6.6-8.2,6.5-9.3,12.1-.3,1.8-.7,3.6-1.1,5.4a1.9,1.9,0,0,1-2.4,1.8C430.1,360.7,430.5,359.6,430.7,358.6Z" transform="translate(14 12.5)" fill="#fafafd"/><path d="M230,358.2c1.2-5.7,2.3-11.4,3.5-17,.4-2,1.2-3.5,3.6-1.4s3.4-1.2,5.2-1,2.2-.6,2.6.6a1.7,1.7,0,0,1-1.7,2.4c-6.1.6-7.8,4.8-8.5,10-.3,2.3-.9,4.5-1.4,6.8s-.5,2.8-2.4,2.4S230,359.2,230,358.2Z" transform="translate(14 12.5)" fill="#fafafd"/><path d="M83.9,74c0-5.8.1-11.6,0-17.5,0-1.9.3-3.2,2.7-3.1,11.8.4,23.6-1.1,35.4,1s17.9,9.1,18,19.7-6.1,18.5-17.7,20.7-23.9.6-35.9.9c-2.5.1-2.5-1.5-2.5-3.3Z" transform="translate(14 12.5)" fill="#495bfe"/><path d="M100.3,227.6c14,0,22.7,9.2,22.7,24s-8.7,23.5-22.5,23.6S78,266.3,77.9,251.8,86.3,227.7,100.3,227.6Z" transform="translate(14 12.5)" fill="#495bfe"/><path d="M282.1,358.7c-4.3-.1-6.9-2.7-6.8-6.9a10.5,10.5,0,0,1,10.1-10.3c4.6-.1,7.1,2.5,6.9,7.1A10.4,10.4,0,0,1,282.1,358.7Z" transform="translate(14 12.5)" fill="#495bfe"/><path d="M539.3,348.7a13.3,13.3,0,0,1-2,0c-1.7-.4-4.6,1.2-5.1-1.2s2-3.6,3.8-4.8a8.9,8.9,0,0,1,5.3-1.2c3.2.2,5.8,1.4,5.8,4.9s-3.4,1.8-5.3,2.3A10.4,10.4,0,0,1,539.3,348.7Z" transform="translate(14 12.5)" fill="#495bfe"/><path d="M257.3,348.7a7.5,7.5,0,0,1-1.5,0c-1.9-.5-5,1.4-5.5-1.3s2.3-3.8,4.3-4.9a9.4,9.4,0,0,1,5.9-.9c2.7.4,4.7,1.9,4.7,4.9s-3.1,1.7-4.9,2.2A15,15,0,0,1,257.3,348.7Z" transform="translate(14 12.5)" fill="#495bfe"/><path d="M327.5,348.7a13.3,13.3,0,0,1-2,0c-1.8-.4-4.6,1.2-5.1-1.1s1.9-3.6,3.7-4.8a9,9,0,0,1,6.2-1.2c3,.3,5.2,1.9,5.1,4.9s-3.2,1.8-5,2.2A14,14,0,0,1,327.5,348.7Z" transform="translate(14 12.5)" fill="#495bfe"/><path d="M390.4,341.5c4.4,0,6.9,2.6,6.8,6.8a10.6,10.6,0,0,1-10.6,10.4c-4-.2-6.6-2.8-6.6-6.6C380.1,346.4,384.9,341.5,390.4,341.5Z" transform="translate(14 12.5)" fill="#495bfe"/></svg>