<svg id="b1578872-b498-4df5-81e6-a64d9bf06e2e" data-name="圖層 1" xmlns="http://www.w3.org/2000/svg" viewBox="0 0 48 33.1"><path d="M324,183.6v32.3a2.5,2.5,0,0,1-1.2.1H277.2a2.5,2.5,0,0,1-1.2-.1V183.6c.4-.4.9-.3,1.4-.3h45.2C323.1,183.3,323.6,183.2,324,183.6Z" transform="translate(-276 -183)" fill="#495bfe"/><path d="M324,183.6H276c.1-.2-.1-.4.1-.5H323C323.3,183.1,324.1,182.6,324,183.6Z" transform="translate(-276 -183)" fill="#fefefe"/><path d="M276,215.9h48c.1.3-.2.2-.4.2H276.4C276.2,216.1,275.9,216.2,276,215.9Z" transform="translate(-276 -183)" fill="#9da7fe"/><path d="M290.3,197.7c-2.2.5-3.7,0-4.6-2a10.8,10.8,0,0,0-1.1-1.8c-.3-.5-.7-.4-1.1-.4s-.4.5-.4.8v2.6q.1,1-.9.9h-1.1c-.6.1-.7-.2-.7-.7v-9.8c0-.5.2-.7.7-.7h5.5c2.2.2,3.6,1.6,3.6,3.4a3.2,3.2,0,0,1-2.1,2.9c-.8.3-.7.5-.3,1.1Z" transform="translate(-276 -183)" fill="#fefdfd"/><path d="M292.5,192.1v-4.5c0-.7.2-1,1-1h5.9c.7,0,.9.2.9.9s-.2,1-.9,1h-3.2c-.6-.1-.9.1-1,.9s0,1.8,1.8,1.8h1.6c.6-.1,1.2-.1,1.2.9s-.5,1-1.2,1h-2.3c-.7,0-1.1.2-1.1,1,.1,2.4-.2,1.9,1.9,1.9h2.4c.8,0,.8.4.8,1s0,1-.8.9h-6.2c-.7,0-.8-.2-.8-.8Z" transform="translate(-276 -183)" fill="#fefdfd"/><path d="M284.4,207.4a3.7,3.7,0,1,1-.1-7.4c2.4,0,4,1.5,4,3.6A3.7,3.7,0,0,1,284.4,207.4Z" transform="translate(-276 -183)" fill="#fefefe"/><path d="M289.2,202.7a5.3,5.3,0,0,0-.1-1.3c-.1-1.2.4-1.5,1.5-1.4s.8.3.8.9-.1,2-.1,3,.2,1.5,1.2,1.5,1.1-.7,1.1-1.5,0-2-.1-3,.5-.9,1.2-.9,1.2-.1,1.2.9,0,2.3-.1,3.5a3.1,3.1,0,0,1-3.4,3c-2.1-.1-3.2-1.1-3.2-3.1A8.6,8.6,0,0,1,289.2,202.7Z" transform="translate(-276 -183)" fill="#fdfdfe"/><path d="M303.4,203.7a24.3,24.3,0,0,0,0-2.7c0-.7.2-1,1-1h3.4c.8,0,.9.3.9,1s-.2.8-.8.8a8.6,8.6,0,0,0-1.6,0c-.3,0-.6.1-.6.5s.3.6.7.6h.8c.7-.1.7.4.7.9s-.2.8-.7.7-1.7.5-1.5,1.6-.1,1.3-1.1,1.3-1.2-.5-1.2-1.3A19.2,19.2,0,0,0,303.4,203.7Z" transform="translate(-276 -183)" fill="#fbfbfe"/><path d="M299.6,200h2c.5,0,1.1-.1,1.1.8s-.3,1.1-1,1-1,.3-1,1v3.8c0,.9-.6.7-1.1.7s-1.2.2-1.1-.8,0-2.4,0-3.6-.1-1.2-1-1.1-1.1-.1-1.1-1,.6-.8,1.1-.8Z" transform="translate(-276 -183)" fill="#fcfcfe"/><path d="M315.6,200h2.3c.6,0,.8.3.8.9s-.1,1-.8.9-1.4.4-1.3,1.4,0,2.2,0,3.3-.6.8-1.1.8-1.1.1-1.1-.8,0-2.5,0-3.8-.1-1-.9-.9-1.1,0-1.1-.9.6-.9,1.2-.9Z" transform="translate(-276 -183)" fill="#fcfcfe"/><path d="M309.5,203.7a28,28,0,0,0,0-2.9c0-1,.7-.7,1.2-.8s1.1,0,1,.8v5.9c0,.9-.6.6-1.1.6s-1.1.3-1.1-.6S309.5,204.7,309.5,203.7Z" transform="translate(-276 -183)" fill="#fcfcfe"/><path d="M285.1,212.1h-3.8c-.6,0-.8-.2-.8-.8s.2-.8.8-.8h7.9c.6,0,.8.2.9.8s-.3.8-.9.8Z" transform="translate(-276 -183)" fill="#f9fafe"/><path d="M316.1,191.2c.3.1.4-.1.6-.2s.3-.2.5,0,.1.3,0,.5l-1.4,1.2a.7.7,0,0,1-1-.2c-.3-.4-1-.5-1-1.2s.3-.5.7-.2l.6.5a3,3,0,0,0-3-3.7,4.6,4.6,0,0,0-4,1.4c-.2.2-.5.6-.8.2s.1-.5.3-.7a5.7,5.7,0,0,1,6.3-1.2A3.7,3.7,0,0,1,316.1,191.2Z" transform="translate(-276 -183)" fill="#fbfbfe"/><path d="M305.9,192.2c-.4.1-.7.8-1,.2s.2-.6.5-.8,1.3-1.3,2.6,0,.5.4.2.8-.5,0-.7-.2-.3-.4-.6-.3c-.5,2.3,1.9,4.3,4.5,3.7a4.6,4.6,0,0,0,2.7-1.5c.2-.2.3-.4.6-.2s.1.5-.1.7-3.3,2.2-5.5,1.6A4.1,4.1,0,0,1,305.9,192.2Z" transform="translate(-276 -183)" fill="#fbfbfe"/><path d="M302.8,211c-.2.5-.3,1.1-1,1.1s-.8-.1-.8-.6a.9.9,0,0,1,.9-1.1C302.4,210.3,302.7,210.4,302.8,211Z" transform="translate(-276 -183)" fill="#e3e5fd"/><path d="M318.1,210.4c.6-.1,1,.1,1,.6a1,1,0,0,1-1,1.1.7.7,0,0,1-.8-.7C317.3,210.8,317.6,210.4,318.1,210.4Z" transform="translate(-276 -183)" fill="#e8e9fd"/><path d="M296.3,212.1a.7.7,0,0,1-.8-.7,1,1,0,0,1,1.1-1c.4-.1.8.1.7.6A1,1,0,0,1,296.3,212.1Z" transform="translate(-276 -183)" fill="#e7e9fd"/><path d="M298.5,212.1c-.6,0-.9-.2-.9-.8a.9.9,0,0,1,1.2-.9c.4,0,.8-.1.7.6S299.3,212.2,298.5,212.1Z" transform="translate(-276 -183)" fill="#e3e5fd"/><path d="M315.5,211.3l.8-.9.3.2-1.5,2.2c.2-.8-.2-1.6-.2-2.3S315.2,211.1,315.5,211.3Z" transform="translate(-276 -183)" fill="#dcdefd"/><path d="M305.7,210.6,304,213c-.1-.6.5-1.1.1-1.6s.8-1,1.6-.8Z" transform="translate(-276 -183)" fill="#d4d6fd"/><path d="M311.9,211.9c.3-.5.6.1.8-.3s-1-.4-.6-1,.8-.3,1.3,0-.6-.1-.8.2,1,.4.6,1S312.4,212.1,311.9,211.9Z" transform="translate(-276 -183)" fill="#d8dbfd"/><path d="M294,210.7c-.4,0-.9-.3-1.2.3a.6.6,0,0,0,.1.7c.3.3.6-.2,1.1-.2a.9.9,0,0,1-1.3.5c-.5-.2-.5-.7-.2-1.1S293.4,210.2,294,210.7Z" transform="translate(-276 -183)" fill="#dadcfd"/><path d="M307.2,211.6a.8.8,0,0,1-1.1.4c-.7-.3-.3-.9-.4-1.4h0c.5-.1,1-.5,1.6-.1a.8.8,0,0,1,.1,1Z" transform="translate(-276 -183)" fill="#e1e3fd"/><path d="M309.4,211c0,.4.2.9-.3,1s-.8.2-1.1-.1-.1-.9,0-1.5-.2,1.2.5,1.3S309.1,211.2,309.4,211Z" transform="translate(-276 -183)" fill="#e2e4fd"/><path d="M300.6,212c-.6.1-.8-.1-.7-.5s-.2-1,.3-1.4.3-.1.3.1.4.2.1.5A.7.7,0,0,0,300.6,212Z" transform="translate(-276 -183)" fill="#e3e4fd"/><path d="M313.9,211.4a1,1,0,0,1,.2-1.4c.1-.1.3.1.3.2S314,211,313.9,211.4Z" transform="translate(-276 -183)" fill="#dee0fd"/><path d="M294.4,211.9c.2-.5-.4-1.5,1.1-1.5C294.9,210.9,294.8,211.5,294.4,211.9Z" transform="translate(-276 -183)" fill="#d9dbfd"/><path d="M310,211.7c0-.6-.3-1.4,1-1.3C310.4,210.8,310.3,211.3,310,211.7Z" transform="translate(-276 -183)" fill="#ebecfd"/><path d="M284.7,191.7c-.5-.2-1.3.3-1.5-.3a11.3,11.3,0,0,1,0-2.6c0-.1.1-.1.1-.2s3.4.1,3.8.7a1.5,1.5,0,0,1-1,2.3Z" transform="translate(-276 -183)" fill="#495bfe"/><path d="M282.7,203.6a1.6,1.6,0,0,1,1.6-1.7,1.7,1.7,0,0,1,1.8,1.8,1.7,1.7,0,0,1-1.8,1.7A1.6,1.6,0,0,1,282.7,203.6Z" transform="translate(-276 -183)" fill="#4a5cfe"/><path d="M298.5,211.8c-.4,0-.6-.2-.5-.5s.2-.7.7-.6a.4.4,0,0,1,.4.4A.9.9,0,0,1,298.5,211.8Z" transform="translate(-276 -183)" fill="#5363fe"/><path d="M307.2,211.6c-.4,0-.8.5-1.1-.1s0-.5.2-.7.4-.2.5-.1.3.6.4.9Z" transform="translate(-276 -183)" fill="#5c6bfe"/></svg>